<?xml version="1.0" standalone="no"?>
<!DOCTYPE svg PUBLIC "-//W3C//DTD SVG 20010904//EN"
 "http://www.w3.org/TR/2001/REC-SVG-20010904/DTD/svg10.dtd">
<svg version="1.0" xmlns="http://www.w3.org/2000/svg"
 width="500.000000pt" height="500.000000pt" viewBox="0 0 500.000000 500.000000"
 preserveAspectRatio="xMidYMid meet">

<g transform="translate(0.000000,500.000000) scale(0.100000,-0.100000)"
fill="#000000" stroke="none">
<path d="M1720 4037 c0 -1 27 -22 61 -47 55 -40 139 -131 139 -151 0 -4 -15
-3 -32 1 -66 18 -235 30 -316 24 l-83 -7 148 -37 c158 -41 291 -85 388 -130
l60 -28 -76 -1 c-136 -2 -258 -53 -357 -151 -243 -241 -199 -632 92 -822 187
-121 446 -102 620 47 29 25 55 45 58 45 3 0 17 -29 33 -65 15 -36 29 -65 31
-65 14 0 55 48 70 83 10 23 19 43 20 45 1 2 28 -17 59 -42 107 -87 213 -126
347 -126 201 0 376 108 467 290 174 348 -72 757 -458 761 l-76 0 64 30 c101
46 223 87 384 129 l148 38 -83 6 c-79 7 -226 -4 -309 -23 -22 -5 -39 -6 -39
-2 0 23 108 133 181 183 23 16 21 16 -31 2 -76 -22 -196 -70 -247 -100 l-42
-24 -440 0 -441 0 -53 30 c-65 36 -287 119 -287 107z m-23 -193 c-3 -3 -12 -4
-19 -1 -8 3 -5 6 6 6 11 1 17 -2 13 -5z m1680 0 c-3 -3 -12 -4 -19 -1 -8 3 -5
6 6 6 11 1 17 -2 13 -5z m-1276 -294 c150 -28 275 -140 324 -289 26 -79 18
-217 -17 -293 -15 -32 -32 -58 -38 -58 -6 0 -8 -5 -4 -11 10 -17 -96 -113
-159 -142 -74 -36 -190 -52 -262 -37 -181 38 -327 198 -342 377 -17 210 117
398 322 449 63 16 108 17 176 4z m1014 -15 c253 -86 364 -398 221 -623 -114
-181 -355 -249 -545 -154 -60 30 -166 126 -156 142 3 5 1 10 -5 10 -6 0 -23
26 -38 58 -24 51 -27 68 -27 167 0 103 2 114 32 178 56 117 172 211 293 237
60 12 164 5 225 -15z"/>
<path d="M2069 3411 c-50 -10 -124 -55 -154 -95 -100 -132 -54 -331 94 -403
58 -28 158 -29 220 -3 135 59 198 230 131 359 -24 47 -86 106 -130 124 -46 19
-116 27 -161 18z m153 -138 c24 -22 23 -39 -6 -58 -44 -29 -86 17 -50 56 21
23 32 24 56 2z m55 -135 c-3 -7 -5 -2 -5 12 0 14 2 19 5 13 2 -7 2 -19 0 -25z"/>
<path d="M2817 3409 c-57 -14 -89 -33 -134 -82 -48 -52 -67 -102 -67 -177 0
-97 55 -188 139 -233 55 -29 182 -31 239 -3 88 44 138 122 144 227 5 74 -14
129 -63 187 -55 65 -172 102 -258 81z m17 -135 c9 -8 16 -22 16 -29 0 -15 -27
-45 -41 -45 -17 0 -50 41 -43 53 24 41 43 47 68 21z"/>
<path d="M1622 2713 c-18 -34 -72 -226 -91 -327 -81 -420 -25 -859 166 -1309
l48 -112 8 75 c26 254 67 398 153 542 65 109 209 255 334 337 52 34 94 67 92
73 -5 17 -82 128 -141 203 -82 104 -291 314 -416 419 -154 128 -142 121 -153
99z"/>
<path d="M3260 2644 c-207 -170 -494 -482 -582 -632 l-17 -29 96 -63 c239
-156 392 -368 454 -626 11 -47 26 -143 32 -213 l12 -126 62 155 c137 345 187
585 187 895 0 177 -12 292 -44 435 -24 105 -81 290 -89 290 -3 0 -53 -39 -111
-86z"/>
<path d="M2245 1238 c-83 -30 -114 -95 -106 -223 l2 -40 17 25 c45 67 94 89
122 55 10 -12 15 -12 36 2 32 21 62 6 101 -49 26 -39 27 -39 36 -16 15 41 4
154 -19 185 -42 56 -128 84 -189 61z"/>
<path d="M2632 1224 c-65 -33 -97 -108 -86 -201 l6 -53 29 40 c41 57 65 67 99
42 25 -19 29 -19 43 -5 24 25 62 8 99 -43 l33 -46 8 34 c5 18 7 59 5 91 -5 61
-23 95 -71 131 -36 27 -122 32 -165 10z"/>
<path d="M4329 140 c-1 -8 -1 -21 0 -27 1 -7 -2 -13 -8 -13 -5 0 -7 -10 -4
-21 6 -20 7 -21 19 -5 11 16 13 16 17 -1 4 -16 5 -16 6 0 0 9 5 17 11 17 5 0
6 8 3 18 -5 14 -4 15 8 6 8 -7 23 -14 34 -17 19 -5 19 -5 -2 -12 -28 -9 -30
-25 -3 -25 11 0 25 10 32 23 10 19 18 22 38 16 l25 -7 -22 -7 c-28 -9 -30 -25
-3 -25 27 0 48 45 33 68 -13 22 -43 28 -54 11 -6 -11 -11 -11 -21 -1 -16 16
-45 16 -52 0 -5 -10 -7 -10 -12 1 -5 11 -8 11 -15 0 -8 -12 -11 -11 -19 1 -9
13 -10 13 -11 0z m165 -21 c-3 -5 -10 -7 -15 -3 -5 3 -7 10 -3 15 3 5 10 7 15
3 5 -3 7 -10 3 -15z m-64 7 c0 -11 -19 -15 -25 -6 -3 5 1 10 9 10 9 0 16 -2
16 -4z"/>
<path d="M4530 140 c0 -5 7 -10 15 -10 21 0 19 -20 -7 -47 l-21 -23 39 0 c33
1 36 3 23 13 -12 9 -13 16 -6 28 6 9 7 24 4 33 -7 17 -47 23 -47 6z"/>
<path d="M4605 140 c-3 -5 -1 -10 4 -10 6 0 11 -11 11 -25 0 -14 -4 -25 -10
-25 -5 0 -10 -4 -10 -10 0 -12 101 -11 117 2 7 6 14 5 18 -2 9 -14 40 -13 54
4 14 17 5 43 -17 49 -15 4 -15 5 1 6 27 2 20 21 -8 21 -20 0 -25 -5 -25 -25 0
-19 5 -25 16 -23 10 2 19 -3 21 -9 3 -8 -5 -13 -20 -13 -17 0 -28 7 -32 19 -3
11 -14 22 -23 24 -16 4 -16 5 1 6 27 2 20 21 -8 21 -20 0 -25 -5 -25 -25 0
-19 5 -25 16 -23 10 2 19 -2 21 -8 4 -11 -52 -25 -62 -16 -3 3 -5 20 -5 39 0
32 -21 46 -35 23z"/>
<path d="M4805 140 c3 -5 13 -10 20 -10 11 0 12 -6 5 -26 -12 -30 -13 -44 -2
-44 4 0 14 20 23 45 l17 45 -35 0 c-20 0 -32 -4 -28 -10z"/>
<path d="M4880 140 c0 -5 7 -10 15 -10 21 0 19 -20 -7 -47 l-21 -23 39 0 c33
1 36 3 23 13 -12 9 -13 16 -6 28 6 9 7 24 4 33 -7 17 -47 23 -47 6z"/>
</g>
</svg>
